<svg width="952px" height="187px" viewBox="0 0 952 187" version="1.1" xmlns="http://www.w3.org/2000/svg" xmlns:xlink="http://www.w3.org/1999/xlink">
    <!-- Generator: Sketch 63.1 (92452) - https://sketch.com -->
    <title>Group 17</title>
    <desc>Created with Sketch.</desc>
    <defs>
        <polygon id="path-1" points="0 0.606499363 195.234449 0.606499363 195.234449 182.193838 0 182.193838"></polygon>
        <polygon id="path-3" points="0.0253391261 0.177552102 135.538795 0.177552102 135.538795 139.309554 0.0253391261 139.309554"></polygon>
    </defs>
    <g id="2021-Home" stroke="none" stroke-width="1" fill="none" fill-rule="evenodd">
        <g id="Home-Page-Copy-8" transform="translate(-42.000000, -432.000000)">
            <g id="Group-17" transform="translate(42.000000, 432.000000)">
                <g id="Group-3" transform="translate(0.000000, 0.109008)">
                    <mask id="mask-2" fill="white">
                        <use xlink:href="#path-1"></use>
                    </mask>
                    <g id="Clip-2"></g>
                    <path d="M195.234449,0.605641783 L195.234449,182.193838 L160.526026,182.193838 L160.526026,90.1198023 C160.526026,69.1476927 161.035186,48.9431169 161.291905,28.4812673 C155.930754,48.1755832 150.060444,66.8493794 142.662655,90.1198023 L113.567824,182.193838 L82.4320755,182.193838 L52.8280845,90.1198023 C45.4260171,66.8493794 39.0465474,48.1755832 33.4329564,29.2530889 C33.942116,49.4576647 34.1988351,69.4049666 34.1988351,90.1198023 L34.1988351,182.193838 L-0.000427865175,182.193838 L-0.000427865175,0.605641783 L56.1483182,0.605641783 L79.8819991,74.520429 C86.7706283,96.2600724 93.150098,117.232182 98.2545294,136.41195 C103.10652,116.974908 109.481711,95.7455246 116.374619,74.520429 L139.85586,0.605641783 L195.234449,0.605641783 Z" id="Fill-1" fill="#000000" mask="url(#mask-2)"></path>
                </g>
                <g id="Group-6" transform="translate(206.563795, 47.084804)">
                    <mask id="mask-4" fill="white">
                        <use xlink:href="#path-3"></use>
                    </mask>
                    <g id="Clip-5"></g>
                    <path d="M33.7111638,69.7444107 C33.7111638,95.060161 47.2402605,111.174082 67.9104268,111.174082 C88.3281526,111.174082 101.852971,95.060161 101.852971,69.7444107 C101.852971,44.6816464 88.3281526,28.3104515 67.9104268,28.3104515 C47.2402605,28.3104515 33.7111638,44.6816464 33.7111638,69.7444107 M135.538795,69.7444107 C135.538795,111.174082 107.466562,139.311269 67.9104268,139.311269 C28.0975728,139.311269 0.0253391261,111.174082 0.0253391261,69.7444107 C0.0253391261,28.3104515 28.0975728,0.177552102 67.9104268,0.177552102 C107.466562,0.177552102 135.538795,28.3104515 135.538795,69.7444107" id="Fill-4" fill="#000000" mask="url(#mask-4)"></path>
                </g>
                <path d="M538.610794,90.9972015 L538.610794,182.303703 L505.434129,182.303703 L505.434129,100.970852 C505.434129,86.391999 499.820538,75.9080882 484.763962,75.9080882 C469.707387,75.9080882 461.791881,87.1595327 461.791881,101.991372 L461.791881,182.303703 L428.615216,182.303703 L428.615216,100.970852 C428.615216,86.391999 423.258344,75.9080882 407.94505,75.9080882 C392.888475,75.9080882 384.977248,87.4168066 384.977248,101.991372 L384.977248,182.303703 L351.800582,182.303703 L351.800582,51.6085697 L382.679612,51.6085697 L382.679612,66.1874232 C389.57252,54.9359786 401.56558,47.2649289 419.942389,47.2649289 C437.039881,47.2649289 449.289661,54.4257187 456.17829,66.4446971 C463.837077,55.4462385 476.086857,47.2649289 495.225266,47.2649289 C523.297499,47.2649289 538.610794,64.3993697 538.610794,90.9972015" id="Fill-7" fill="#000000"></path>
                <path d="M581.485023,101.737529 L642.477203,101.737529 C641.206443,84.345814 630.993302,73.3473554 612.873212,73.3473554 C595.26656,73.3473554 585.057697,84.8560739 581.485023,101.737529 M656.25874,140.358627 L674.887989,160.816189 C655.745302,180.257518 637.886209,186.393501 616.702605,186.393501 C574.596394,186.393501 548.308358,159.285409 548.308358,117.594176 C548.308358,77.1850242 572.807917,47.2640713 613.895809,47.2640713 C653.708663,47.2640713 674.887989,72.3268357 674.887989,112.478713 C674.887989,116.573656 674.635549,122.713926 674.37883,125.522499 L580.719144,125.522499 C583.52594,144.449282 594.7574,158.260601 617.468484,158.260601 C632.781778,158.260601 640.949724,153.145139 656.25874,140.358627" id="Fill-9" fill="#000000"></path>
                <path d="M802.232644,92.7869702 L802.232644,182.301131 L769.055978,182.301131 L769.055978,102.760621 C769.055978,85.6261804 760.631313,75.9055154 744.813138,75.9055154 C729.499844,75.9055154 718.529381,87.1612479 718.529381,103.528155 L718.529381,182.301131 L685.348437,182.301131 L685.348437,51.6102848 L716.227466,51.6102848 L716.227466,66.4421243 C724.395412,54.6804199 737.663511,47.2623562 755.53116,47.2623562 C785.90103,47.2623562 802.232644,66.1891383 802.232644,92.7869702" id="Fill-11" fill="#000000"></path>
                <path d="M895.644167,180.510933 C884.155987,184.348602 874.713003,185.37341 866.296895,185.37341 C839.75214,185.37341 829.286558,172.839884 829.286558,148.540365 L829.286558,76.932467 L806.062037,76.932467 L806.062037,51.6081409 L829.286558,51.6081409 L829.286558,11.1989893 L862.467502,11.1989893 L862.467502,51.6081409 L893.598972,51.6081409 L893.598972,76.932467 L862.467502,76.932467 L862.467502,144.44971 C862.467502,153.655828 866.806055,156.472977 875.48316,156.472977 C879.312554,156.472977 883.394387,156.215703 891.814774,154.166087 L895.644167,180.510933 Z" id="Fill-13" fill="#000000"></path>
                <path d="M928.749379,63.3561241 C931.782943,63.3561241 933.190619,61.7267228 933.190619,59.445561 C933.190619,57.2758846 931.782943,55.6464833 928.749379,55.6464833 L923.769028,55.6464833 L923.769028,63.3561241 L928.749379,63.3561241 Z M918.459222,50.8697648 L929.72919,50.8697648 C934.816507,50.8697648 938.39346,54.5616451 938.39346,59.3383636 C938.39346,62.9187585 936.33115,65.9588782 933.190619,67.2623992 L939.582925,77.7934769 L933.734008,77.7934769 L927.773846,67.8069623 L923.769028,67.8069623 L923.769028,77.7934769 L918.459222,77.7934769 L918.459222,50.8697648 Z M946.625586,64.7668425 C946.625586,53.6954897 938.825604,45.3340884 927.773846,45.3340884 C916.722089,45.3340884 908.926386,53.6954897 908.926386,64.7668425 C908.926386,75.8424833 916.722089,84.1995967 927.773846,84.1995967 C938.825604,84.1995967 946.625586,75.8424833 946.625586,64.7668425 L946.625586,64.7668425 Z M903.83479,64.7668425 C903.83479,51.0884476 914.231914,40.7717648 927.773846,40.7717648 C941.320058,40.7717648 951.717181,51.0884476 951.717181,64.7668425 C951.717181,78.4452375 941.320058,88.7576324 927.773846,88.7576324 C914.231914,88.7576324 903.83479,78.4452375 903.83479,64.7668425 L903.83479,64.7668425 Z" id="Fill-15" fill="#000000"></path>
            </g>
        </g>
    </g>
</svg>