<?xml version="1.0" encoding="UTF-8"?>
<svg width="466px" height="93px" viewBox="0 0 466 93" version="1.1" xmlns="http://www.w3.org/2000/svg" xmlns:xlink="http://www.w3.org/1999/xlink">
    <!-- Generator: Sketch 63.1 (92452) - https://sketch.com -->
    <title>Group 17</title>
    <desc>Created with Sketch.</desc>
    <defs>
        <polygon id="path-1" points="0 0.9482 93.7026 0.9482 93.7026 91.0952 0 91.0952"></polygon>
        <polygon id="path-3" points="0.8748 0.3262 61.6928 0.3262 61.6928 68 0.8748 68"></polygon>
    </defs>
    <g id="2021-Home" stroke="none" stroke-width="1" fill="none" fill-rule="evenodd">
        <g id="Group-17" transform="translate(0.000000, -1.000000)">
            <g id="Group-3" transform="translate(0.000000, 0.051800)">
                <mask id="mask-2" fill="white">
                    <use xlink:href="#path-1"></use>
                </mask>
                <g id="Clip-2"></g>
                <path d="M93.7026,0.9482 L93.7026,91.0952 L79.1016,91.0952 L79.1016,45.6402 C79.1016,34.3412 79.3556,23.0412 79.6096,11.9942 C76.3076,22.7872 72.6256,33.3252 68.6896,45.6402 L53.5806,91.0952 L40.3756,91.0952 L25.0126,45.6402 C20.9496,33.4522 17.2676,23.0412 14.0936,12.7562 C14.2206,23.5492 14.3476,34.5942 14.3476,45.7672 L14.3476,91.0952 L-0.0004,91.0952 L-0.0004,0.9482 L23.7436,0.9482 L36.5666,39.0392 C40.6296,50.8462 44.3116,62.1462 47.1056,72.3042 C49.8986,62.1462 53.5806,50.7192 57.5166,39.0392 L70.2136,0.9482 L93.7026,0.9482 Z" id="Fill-1" fill="#FEFEFE" mask="url(#mask-2)"></path>
            </g>
            <path d="M113.7646,59.2784 C113.7646,72.4834 120.8746,81.2444 132.0476,81.2444 C142.9676,81.2444 150.2046,72.4834 150.2046,59.2784 C150.2046,45.9464 142.9676,37.1854 132.0476,37.1854 C120.8746,37.1854 113.7646,45.9464 113.7646,59.2784 M164.4246,59.2784 C164.4246,79.3404 150.9666,93.0514 132.0476,93.0514 C112.8756,93.0514 99.5436,79.3404 99.5436,59.2784 C99.5436,39.0914 112.8756,25.3784 132.0476,25.3784 C150.9666,25.3784 164.4246,39.0914 164.4246,59.2784" id="Fill-4" fill="#FEFEFE"></path>
            <path d="M260.1597,46.5821 L260.1597,91.1471 L246.1927,91.1471 L246.1927,50.7711 C246.1927,42.6451 242.7647,37.3121 234.8927,37.3121 C226.7667,37.3121 222.0687,43.4071 222.0687,51.5331 L222.0687,91.1471 L208.1027,91.1471 L208.1027,50.7711 C208.1027,42.6451 204.9287,37.3121 196.8027,37.3121 C189.0567,37.3121 184.2327,43.1531 184.2327,51.5331 L184.2327,91.1471 L170.2657,91.1471 L170.2657,27.4091 L183.2167,27.4091 L183.2167,34.7731 C186.7717,29.0601 192.6127,25.3781 201.4997,25.3781 C210.1347,25.3781 216.2287,29.1861 219.5297,35.1541 C223.3387,29.4401 229.4327,25.3781 238.8287,25.3781 C252.7957,25.3781 260.1597,34.0121 260.1597,46.5821" id="Fill-6" fill="#FEFEFE"></path>
            <g id="Group-10" transform="translate(265.000000, 25.051800)">
                <mask id="mask-4" fill="white">
                    <use xlink:href="#path-3"></use>
                </mask>
                <g id="Clip-9"></g>
                <path d="M14.9678,27.2432 L47.8528,27.2432 C47.3448,17.5942 41.6318,11.3722 31.8548,11.3722 C22.4588,11.3722 16.7458,17.4672 14.9678,27.2432 L14.9678,27.2432 Z M61.6928,55.1772 C52.2968,64.8262 43.7898,68.0002 33.5058,68.0002 C13.3178,68.0002 0.8748,54.7962 0.8748,34.6072 C0.8748,14.6742 12.8098,0.3262 32.2358,0.3262 C51.1538,0.3262 61.5658,12.3882 61.5658,31.6872 C61.5658,33.3382 61.4388,36.1312 61.3118,37.4002 L14.5868,37.4002 C15.6028,47.8122 21.4438,56.1922 33.7598,56.1922 C41.5048,56.1922 45.9478,53.5252 53.5668,46.6702 L61.6928,55.1772 Z" id="Fill-8" fill="#FEFEFE" mask="url(#mask-4)"></path>
            </g>
            <path d="M388.2725,47.4707 L388.2725,91.1477 L374.3065,91.1477 L374.3065,51.7867 C374.3065,42.3917 369.6085,37.3127 361.1015,37.3127 C352.8485,37.3127 346.7535,43.5337 346.7535,52.1677 L346.7535,91.1477 L332.7875,91.1477 L332.7875,27.4087 L345.7385,27.4087 L345.7385,35.1547 C349.8015,28.9327 356.6575,25.3777 365.4185,25.3777 C380.5275,25.3777 388.2725,34.9007 388.2725,47.4707" id="Fill-11" fill="#FEFEFE"></path>
            <path d="M433.5059,90.1319 C428.2999,91.9089 423.7299,92.5439 419.7939,92.5439 C407.0959,92.5439 402.3989,86.4489 402.3989,75.4029 L402.3989,37.9469 L390.8439,37.9469 L390.8439,27.4089 L402.3989,27.4089 L402.3989,6.8409 L416.3649,6.8409 L416.3649,27.4089 L432.4899,27.4089 L432.4899,37.9469 L416.3649,37.9469 L416.3649,73.7529 C416.3649,78.7039 418.5239,80.4829 423.2219,80.4829 C425.3799,80.4829 427.5389,80.2289 431.7289,79.0859 L433.5059,90.1319 Z" id="Fill-13" fill="#FEFEFE"></path>
            <path d="M452.041,31.9747 C453.803,31.9747 454.622,31.0307 454.622,29.7087 C454.622,28.4507 453.803,27.5057 452.041,27.5057 L449.145,27.5057 L449.145,31.9747 L452.041,31.9747 Z M446.062,24.7367 L452.607,24.7367 C455.565,24.7367 457.643,26.8767 457.643,29.6467 C457.643,31.7227 456.447,33.4857 454.622,34.2417 L458.335,40.3457 L454.937,40.3457 L451.475,34.5557 L449.145,34.5557 L449.145,40.3457 L446.062,40.3457 L446.062,24.7367 Z M462.426,32.7927 C462.426,26.3727 457.895,21.5267 451.475,21.5267 C445.054,21.5267 440.522,26.3727 440.522,32.7927 C440.522,39.2127 445.054,44.0597 451.475,44.0597 C457.895,44.0597 462.426,39.2127 462.426,32.7927 L462.426,32.7927 Z M437.564,32.7927 C437.564,24.8627 443.606,18.8827 451.475,18.8827 C459.342,18.8827 465.385,24.8627 465.385,32.7927 C465.385,40.7237 459.342,46.7037 451.475,46.7037 C443.606,46.7037 437.564,40.7237 437.564,32.7927 L437.564,32.7927 Z" id="Fill-15" fill="#FEFEFE"></path>
        </g>
    </g>
</svg>